<?xml version="1.0" encoding="UTF-8"?>
<svg width="15px" height="14px" viewBox="0 0 15 14" version="1.1" xmlns="http://www.w3.org/2000/svg" xmlns:xlink="http://www.w3.org/1999/xlink">
    <!-- Generator: Sketch 51.3 (57544) - http://www.bohemiancoding.com/sketch -->
    <title>check-mark-button</title>
    <desc>Created with Sketch.</desc>
    <defs></defs>
    <g id="check-mark-button" stroke="none" stroke-width="1" fill="none" fill-rule="evenodd">
        <g transform="translate(1.000000, 0.000000)" fill="#3CCF8E">
            <g id="Group-3">
                <path d="M6.75633445,0.132816054 C3.03111706,0.132816054 0,3.16393311 0,6.88945373 C0,10.6146711 3.03111706,13.6457882 6.75633445,13.6457882 C10.4815518,13.6457882 13.5126689,10.6146711 13.5126689,6.88945373 C13.5126689,3.16393311 10.4815518,0.132816054 6.75633445,0.132816054 Z M6.75633445,12.5559688 C3.63182163,12.5559688 1.08860647,10.0139666 1.08860647,6.88945373 C1.08860647,3.76342475 3.63182163,1.22142252 6.75633445,1.22142252 C9.8811505,1.22142252 12.4231527,3.76463768 12.4231527,6.88945373 C12.4231527,10.0139666 9.8811505,12.5559688 6.75633445,12.5559688 Z" id="Fill-1"></path>
            </g>
            <path d="M8.90989521,4.73468004 L5.75657525,7.88921293 L4.60186399,6.73419844 C4.38990412,6.52223857 4.04512821,6.52223857 3.83316834,6.73419844 C3.61999554,6.94737124 3.61999554,7.29214716 3.83316834,7.50410702 L5.37177258,9.04392419 C5.47820736,9.14944928 5.61678484,9.20281828 5.75657525,9.20281828 C5.89515273,9.20281828 6.03494314,9.14944928 6.14168116,9.04392419 L9.67980379,5.50458863 C9.89297659,5.29141583 9.89297659,4.94785284 9.67980379,4.73468004 C9.46784392,4.52272018 9.123068,4.52272018 8.90989521,4.73468004 Z" id="Fill-4"></path>
        </g>
    </g>
</svg>