<?xml version="1.0" encoding="UTF-8"?>
<svg width="11px" height="11px" viewBox="0 0 11 11" version="1.1" xmlns="http://www.w3.org/2000/svg" xmlns:xlink="http://www.w3.org/1999/xlink">
    <!-- Generator: Sketch 51.3 (57544) - http://www.bohemiancoding.com/sketch -->
    <title>check-mark-button</title>
    <desc>Created with Sketch.</desc>
    <defs></defs>
    <g id="check-mark-button" stroke="none" stroke-width="1" fill="none" fill-rule="evenodd">
        <g transform="translate(1.000000, 1.000000)" fill="#3CCF8E">
            <g id="Group-3">
                <path d="M4.50422297,0.0885440357 C2.0207447,0.0885440357 0,2.10928874 0,4.59296916 C0,7.07644742 2.0207447,9.09719212 4.50422297,9.09719212 C6.98770123,9.09719212 9.00844593,7.07644742 9.00844593,4.59296916 C9.00844593,2.10928874 6.98770123,0.0885440357 4.50422297,0.0885440357 Z M4.50422297,8.37064586 C2.42121442,8.37064586 0.725737644,6.6759777 0.725737644,4.59296916 C0.725737644,2.50894983 2.42121442,0.81428168 4.50422297,0.81428168 C6.58743367,0.81428168 8.28210182,2.50975845 8.28210182,4.59296916 C8.28210182,6.6759777 6.58743367,8.37064586 4.50422297,8.37064586 Z" id="Fill-1"></path>
            </g>
            <path d="M5.93993014,3.15645336 L3.83771683,5.25947529 L3.06790933,4.48946563 C2.92660275,4.34815905 2.69675214,4.34815905 2.55544556,4.48946563 C2.41333036,4.63158082 2.41333036,4.86143144 2.55544556,5.00273802 L3.58118172,6.02928279 C3.65213824,6.09963285 3.74452323,6.13521219 3.83771683,6.13521219 C3.93010182,6.13521219 4.02329543,6.09963285 4.09445411,6.02928279 L6.45320253,3.66972575 C6.59531773,3.52761055 6.59531773,3.29856856 6.45320253,3.15645336 C6.31189595,3.01514679 6.08204534,3.01514679 5.93993014,3.15645336 Z" id="Fill-4"></path>
        </g>
    </g>
</svg>